#!OML:ASF H:\Dans Jumps\Project 1\Capture day 1\Session 1\subject.ASF
:FULLY-SPECIFIED
:DEGREES
357
root 0.466416 17.7425 -2.34603 7.59686 -2.11233 -1.01378
lowerback -0.207635 -0.180423 -0.404338
upperback 4.27442 -0.282302 1.31685
thorax 4.52993 -0.184765 1.57415
lowerneck -12.2994 0.395836 -2.14851
upperneck 35.2481 0.745014 1.1442
head 14.0539 0.179814 0.954675
rclavicle 3.8266e-015 -4.77083e-015
rhumerus -23.919 -13.7756 -82.0248
rradius 22.214
rwrist 34.5586
rhand -17.8826 -25.8326
rfingers 7.12502
rthumb 8.38359 -55.6463
lclavicle 3.8266e-015 -4.77083e-015
lhumerus -21.1657 -4.09574 89.5735
lradius 18.3711
lwrist 6.46598
lhand -26.05 -4.06812
lfingers 7.12502
lthumb 0.497422 25.911
rfemur -16.6512 -0.0946633 18.1441
rtibia 23.5796
rfoot -12.9666 1.42281
rtoes 14.0135
lfemur -14.1796 6.7226 -18.1755
ltibia 20.0291
lfoot -9.47935 7.16835
ltoes 2.19213
358
root 0.464368 17.7419 -2.34665 7.58 -2.13023 -1.01351
lowerback -0.199085 -0.19298 -0.415489
upperback 4.26782 -0.298623 1.31487
thorax 4.51874 -0.193185 1.57767
lowerneck -12.3081 0.399798 -2.15724
upperneck 35.2707 0.75347 1.14278
head 14.0659 0.181615 0.957186
rclavicle 5.51627e-015 9.34288e-015
rhumerus -23.8216 -13.6271 -82.0938
rradius 22.2878
rwrist 34.4241
rhand -17.8911 -25.837
rfingers 7.12502
rthumb 8.37546 -55.651
lclavicle 5.51627e-015 9.34288e-015
lhumerus -21.0132 -4.16653 89.5513
lradius 18.4398
lwrist 6.54617
lhand -26.0025 -3.9376
lfingers 7.12502
lthumb 0.543317 26.0415
rfemur -16.6487 -0.0908079 18.1511
rtibia 23.6001
rfoot -12.9705 1.43488
rtoes 14.0144
lfemur -14.1698 6.72589 -18.1671
ltibia 20.0486
lfoot -9.48373 7.18671
ltoes 2.1831
359
root 0.462411 17.7413 -2.34738 7.56307 -2.1476 -1.01314
lowerback -0.191505 -0.204957 -0.424736
upperback 4.26195 -0.314178 1.31148
thorax 4.50882 -0.201131 1.57871
lowerneck -12.3169 0.404198 -2.16253
upperneck 35.2916 0.762594 1.13873
head 14.0772 0.183829 0.958112
rclavicle -6.4605e-016 7.95139e-016
rhumerus -23.7227 -13.4704 -82.1672
rradius 22.3717
rwrist 34.2782
rhand -17.8998 -25.8487
rfingers 7.12502
rthumb 8.36702 -55.663
lclavicle -6.4605e-016 7.95139e-016
lhumerus -20.857 -4.23163 89.5252
lradius 18.4974
lwrist 6.61485
lhand -25.9564 -3.83282
lfingers 7.12502
lthumb 0.587901 26.1461
rfemur -16.6451 -0.0916208 18.1579
rtibia 23.6187
rfoot -12.9732 1.45142
rtoes 14.0157
lfemur -14.1615 6.7294 -18.1594
ltibia 20.0701
lfoot -9.48792 7.20506
ltoes 2.16617
360
root 0.460511 17.7407 -2.34822 7.54658 -2.16453 -1.0167
lowerback -0.183805 -0.216039 -0.429579
upperback 4.25507 -0.328678 1.30887
thorax 4.49773 -0.208389 1.57814
lowerneck -12.3228 0.408419 -2.16743
upperneck 35.3129 0.771331 1.1346
head 14.0881 0.185922 0.958863
rclavicle 2.48481e-015 5.96354e-016
rhumerus -23.6239 -13.3092 -82.2418
rradius 22.4605
rwrist 34.124
rhand -17.9111 -25.8672
rfingers 7.12502
rthumb 8.35613 -55.6819
lclavicle 2.48481e-015 5.96354e-016
lhumerus -20.7023 -4.28904 89.4973
lradius 18.5484
lwrist 6.67068
lhand -25.915 -3.73945
lfingers 7.12502
lthumb 0.627801 26.2394
rfemur -16.6402 -0.0955956 18.169
rtibia 23.6341
rfoot -12.9759 1.47137
rtoes 14.0222
lfemur -14.1549 6.73214 -18.1474
ltibia 20.0944
lfoot -9.49406 7.22404
ltoes 2.15232
361
root 0.458707 17.7401 -2.34907 7.53002 -2.18266 -1.02292
lowerback -0.176569 -0.226348 -0.431958
upperback 4.24772 -0.342248 1.30727
thorax 4.48637 -0.21511 1.57726
lowerneck -12.3301 0.413655 -2.16868
upperneck 35.337 0.781941 1.12674
head 14.1006 0.188784 0.957786
rclavicle 4.42296e-015 -8.54774e-015
rhumerus -23.5251 -13.143 -82.3168
rradius 22.5546
rwrist 33.9627
rhand -17.9282 -25.8856
rfingers 7.12502
rthumb 8.33959 -55.701
lclavicle 4.42296e-015 -8.54774e-015
lhumerus -20.5507 -4.33076 89.4672
lradius 18.5981
lwrist 6.70954
lhand -25.8735 -3.64545
lfingers 7.12502
lthumb 0.667892 26.3333
rfemur -16.6329 -0.104195 18.1829
rtibia 23.6447
rfoot -12.9771 1.49674
rtoes 14.02
lfemur -14.1493 6.73541 -18.133
ltibia 20.1212
lfoot -9.50023 7.24444
ltoes 2.1293
362
root 0.456931 17.7395 -2.35 7.51332 -2.20324 -1.03345
lowerback -0.168727 -0.234445 -0.431457
upperback 4.2397 -0.352987 1.30705
thorax 4.47386 -0.220334 1.57631
lowerneck -12.3377 0.418621 -2.1683
upperneck 35.363 0.792018 1.11813
head 14.114 0.191525 0.956068
rclavicle -1.3418e-015 4.57205e-015
rhumerus -23.427 -12.9752 -82.3919
rradius 22.6525
rwrist 33.7907
rhand -17.9548 -25.9013
rfingers 7.12502
rthumb 8.31393 -55.7177
lclavicle -1.3418e-015 4.57205e-015
lhumerus -20.4031 -4.35597 89.435
lradius 18.6472
lwrist 6.73048
lhand -25.8343 -3.54945
lfingers 7.12502
lthumb 0.705818 26.4291
rfemur -16.6243 -0.112242 18.2012
rtibia 23.6516
rfoot -12.9777 1.5254
rtoes 14.0262
lfemur -14.1447 6.73908 -18.1141
ltibia 20.1509
lfoot -9.50663 7.26801
ltoes 2.10192
363
root 0.455309 17.7388 -2.35059 7.49349 -2.22943 -1.04819
lowerback -0.163362 -0.237972 -0.425044
upperback 4.23701 -0.357785 1.30545
thorax 4.46809 -0.222412 1.57088
lowerneck -12.3508 0.423705 -2.16155
upperneck 35.3862 0.801 1.10873
head 14.1275 0.194589 0.952745
rclavicle -2.33572e-014 8.74653e-015
rhumerus -23.3234 -12.792 -82.4756
rradius 22.7591
rwrist 33.5901
rhand -18.003 -25.9051
rfingers 7.12502
rthumb 8.26746 -55.7233
lclavicle -2.33572e-014 8.74653e-015
lhumerus -20.2505 -4.3709 89.3974
lradius 18.7102
lwrist 6.75105
lhand -25.7903 -3.4184
lfingers 7.12502
lthumb 0.748303 26.56
rfemur -16.6109 -0.116531 18.2228
rtibia 23.6562
rfoot -12.9796 1.55624
rtoes 14.0319
lfemur -14.1358 6.7396 -18.0907
ltibia 20.1831
lfoot -9.51345 7.30105
ltoes 2.07968
364
root 0.453588 17.7381 -2.35133 7.474 -2.25705 -1.06124
lowerback -0.15894 -0.240547 -0.424475
upperback 4.23433 -0.361205 1.30501
thorax 4.46287 -0.224053 1.56996
lowerneck -12.3656 0.428815 -2.15466
upperneck 35.4113 0.81056 1.09794
head 14.1423 0.197722 0.948955
rclavicle -3.27995e-015 -8.15017e-015
rhumerus -23.2173 -12.6088 -82.5575
rradius 22.8628
rwrist 33.3896
rhand -18.0602 -25.9032
rfingers 7.12502
rthumb 8.21226 -55.7236
lclavicle -3.27995e-015 -8.15017e-015
lhumerus -20.1009 -4.39661 89.3642
lradius 18.7716
lwrist 6.78093
lhand -25.761 -3.31183
lfingers 7.12502
lthumb 0.776561 26.6665
rfemur -16.5998 -0.118503 18.2428
rtibia 23.6609
rfoot -12.9806 1.5863
rtoes 14.0405
lfemur -14.1288 6.73866 -18.0688
ltibia 20.2171
lfoot -9.51925 7.33763
ltoes 2.05862
